<svg version="1.1" id="Layer_1" xmlns="http://www.w3.org/2000/svg" x="0" y="0" viewBox="0 0 566.9 100.9" xml:space="preserve"><style>.st1{fill:#fff}</style><path d="M548.3 86.6c-4.1 0-5.8-1.9-5.8-5.9 0-5.1 1.3-7.6 7.7-7.6 4.9 0 5.8 2.5 5.8 7.2 0 5.1-2.1 6.3-7.7 6.3z" fill="#00bc70"/><path class="st1" d="M166.1 75.8c0 2.5.4 3.4 3.1 3.8l5 .9v6H149v-6l5.1-.9c2.6-.4 3.1-1.3 3.1-3.8V24.2c0-2.5-.4-3.8-3.1-4.1l-5-.6v-6h17.2l37.8 57V24.2c0-2.5-.3-3.8-2.9-4.1l-5.1-.6v-6H221v6l-4.9.6c-2.6.3-3.1 1.5-3.1 4.1v62.4h-9.3l-37.7-57v46.2zM257.5 87.6c-22.3 0-30.9-15.7-30.9-37.5 0-19.3 10-37.5 35.8-37.5 22.3 0 30.9 15.7 30.9 37.5 0 19.2-10 37.5-35.8 37.5zm-14.6-62c-3.7 4.1-6 15.9-6 25 0 18.3 8.6 29.4 24.4 29.4 6.8 0 12.1-1.5 15.8-5.6 3.7-4.1 6-15.9 6-25 0-18.3-8.6-29.4-24.4-29.4-6.9 0-12.1 1.6-15.8 5.6zM399.4 86.6h-25.1v-6l5-.9c2.6-.4 3.1-1.3 3.1-3.8V24.3c0-2.5-.4-3.4-3.1-3.9l-5-.9v-6h25.1v6l-5 .9c-2.6.4-3.1 1.3-3.1 3.9v51.5c0 2.5.4 3.4 3.1 3.8l5 .9v6.1zM504.9 87.6c-22.3 0-30.9-15.7-30.9-37.5 0-19.3 10-37.5 35.8-37.5 22.3 0 30.9 15.7 30.9 37.5 0 19.2-10 37.5-35.8 37.5zm-14.6-62c-3.7 4.1-6 15.9-6 25 0 18.3 8.6 29.4 24.4 29.4 6.8 0 12.1-1.5 15.8-5.6 3.7-4.1 6-15.9 6-25 0-18.3-8.6-29.4-24.4-29.4-6.9 0-12.1 1.6-15.8 5.6zM63.9 53.1H45.8v6l6 .9c2.5.4 3.1 1.3 3.1 3.9v13.5c-5.4 1.6-9.8 2.5-15.6 2.5-16.4 0-23.1-13-23.1-29.7 0-7.6 2.2-21 5.9-24.5 3.2-3 6.8-5.5 15.1-5.5 7.6 0 11.3 1.2 16.5 3.5l2.2 11.2h7.6l1.7-16.5c-10.6-5.4-17.9-5.8-24.9-5.8C16.2 12.5 6 29.6 6 50.9c0 23.3 9.4 36.7 31.7 36.7 11.6 0 20.5-3.9 26-6.2V63.6c0-.8 0-1.4.1-1.9v-8.6zM335.7 75.8V20.7h14.6c2.5 0 3.8.4 4 2.9l.4 5h7l.5-15H300l.5 15h7l.4-5c.2-2.5 1.5-2.9 3.9-2.9h14.7v55.2c0 2.5-.4 3.4-3.1 3.8l-5 .9v6h25.2v-6l-5-.9c-2.5-.4-2.9-1.3-2.9-3.9zM134.5 71.7h-7.4l-.4 4.5c-.2 2.5-1.5 2.9-4 2.9H98.2V21h24.4c2.5 0 3.8.4 4 2.9l.4 4.7h7l.5-15.1H80.9v5.7l5.1.6c2.6.3 3.1 1.5 3.1 4.1v51.8c0 2.5-.4 3.4-3.1 3.9l-5.1.9v6.1H135l-.5-14.9z"/><path class="st1" d="M105.8 44.8h21.3v7.4h-21.3zM465.3 32.4c0-15-9.8-18.9-24.5-18.9h-27v6l4.9.9c2.6.4 3.1 1.3 3.1 3.9v51.5c0 2.5-.4 3.4-3.1 3.8l-4.9.9v6h25v-6.1l-4.8-.8c-2.7-.4-3.2-1.3-3.2-3.8V20.7h9.1c8.1 0 15.3 2.6 15.3 12.8 0 8.3-1.6 12.4-5.2 15.1-3.2 2.4-7.5 2.6-11.5 2.6v7.1c13.2-.1 26.8-9.5 26.8-25.9z"/></svg>